# xmcd
#
# Track frame offsets: 
#        150
#        24262
#        45943
#        73269
#        85739
#        113136
#        137110
#        149657
#        170363
#        192917
#        218579
#        232727
#        257376
#        274508
#        295305
#        319098
#
# Disc length: 4682 seconds
#
# Revision: 3
# Processed by: cddbd v1.5.2PL0 Copyright (c) Steve Scherf et al.
# Submitted via: ExactAudioCopy v1.0b2
#
DISCID=dd124810
DTITLE=Billy's Band - Открытка от...
DYEAR=2003
DGENRE=Blues
TTITLE0=Raindogs (Tom Waits)
TTITLE1=Немного смерти, немного любви (Новик)
TTITLE2=Открытка от... (Новик)
TTITLE3=Temptation (Новик)
TTITLE4=Кафе "Последний путь" (Новик)
TTITLE5=Все хорошо (Новик)
TTITLE6=Уличный вальс (Новик-Матезиус)
TTITLE7=Straight to the top (Vegas) (Tom Waits)
TTITLE8=200 cm3 "Агдама" (Новик)
TTITLE9=Chocolate Jesus (Tom Waits)
TTITLE10=На его месте должен был быть я (Новик)
TTITLE11=Jesus gonna be here (Tom Waits)
TTITLE12=Бильярд (Новик)
TTITLE13=Выпей вина (Новик-Матезиус)
TTITLE14=Муз Замбела (Новик)
TTITLE15=Desperados (Новик)
EXTD=YEAR: 2003 ID3G: 0
EXTT0=
EXTT1=
EXTT2=
EXTT3=
EXTT4=
EXTT5=
EXTT6=
EXTT7=
EXTT8=
EXTT9=
EXTT10=
EXTT11=
EXTT12=
EXTT13=
EXTT14=
EXTT15=
PLAYORDER=
